<svg xmlns="http://www.w3.org/2000/svg" version="1.1" width="910px" height="122px"
     style="shape-rendering:geometricPrecision; text-rendering:geometricPrecision; image-rendering:optimizeQuality; fill-rule:evenodd; clip-rule:evenodd"
     xmlns:xlink="http://www.w3.org/1999/xlink">
    <g>
        <path style="opacity:0.936" fill="#fefffe"
              d="M 30.5,-0.5 C 56.5,-0.5 82.5,-0.5 108.5,-0.5C 126.806,4.40088 134.306,16.4009 131,35.5C 128.948,43.1055 124.782,49.2722 118.5,54C 112.391,58.3878 105.724,61.7211 98.5,64C 112.411,83.0638 126.077,102.231 139.5,121.5C 132.167,121.5 124.833,121.5 117.5,121.5C 110.218,111.045 102.718,100.712 95,90.5C 94.5002,100.828 94.3335,111.161 94.5,121.5C 88.8333,121.5 83.1667,121.5 77.5,121.5C 77.5,85.1667 77.5,48.8333 77.5,12.5C 72.1667,12.5 66.8333,12.5 61.5,12.5C 61.8265,48.9062 61.4931,85.2395 60.5,121.5C 55.1667,121.5 49.8333,121.5 44.5,121.5C 44.6665,110.495 44.4998,99.495 44,88.5C 36.3358,99.6572 28.5024,110.657 20.5,121.5C 13.5,121.5 6.5,121.5 -0.5,121.5C -0.5,120.833 -0.5,120.167 -0.5,119.5C 13.0237,100.979 26.6903,82.4787 40.5,64C 28.5413,60.7068 18.708,54.2068 11,44.5C 5.08134,33.4915 5.08134,22.4915 11,11.5C 15.8946,4.80667 22.3946,0.806671 30.5,-0.5 Z M 42.5,12.5 C 44.4809,25.1237 45.1476,38.1237 44.5,51.5C 28.8801,47.251 22.7134,37.251 26,21.5C 27.1217,19.3762 28.6217,17.5429 30.5,16C 34.4823,14.3295 38.4823,13.1629 42.5,12.5 Z M 94.5,12.5 C 106.424,12.1126 113.09,17.7792 114.5,29.5C 112.459,40.7121 105.959,48.0454 95,51.5C 94.5001,38.5043 94.3334,25.5043 94.5,12.5 Z"/>
    </g>
    <g>
        <path style="opacity:0.926" fill="#fefffe"
              d="M 190.5,-0.5 C 208.5,-0.5 226.5,-0.5 244.5,-0.5C 271.718,1.58955 281.551,15.9229 274,42.5C 266.46,53.204 256.293,60.3706 243.5,64C 257.36,82.3593 271.026,100.859 284.5,119.5C 277.524,120.664 270.524,120.831 263.5,120C 251.333,103.167 239.167,86.3333 227,69.5C 225.621,64.964 225.121,60.2973 225.5,55.5C 237.543,54.7702 247.71,50.1035 256,41.5C 259.703,35.135 260.37,28.4684 258,21.5C 255.252,17.4332 251.419,14.9332 246.5,14C 233.504,13.5001 220.504,13.3334 207.5,13.5C 207.5,49.1667 207.5,84.8333 207.5,120.5C 201.833,120.5 196.167,120.5 190.5,120.5C 190.5,80.1667 190.5,39.8333 190.5,-0.5 Z"/>
    </g>
    <g>
        <path style="opacity:0.941" fill="#fefffe"
              d="M 342.5,-0.5 C 351.833,-0.5 361.167,-0.5 370.5,-0.5C 393.288,3.11496 407.788,16.115 414,38.5C 417.536,54.2523 417.203,69.919 413,85.5C 409.602,98.8948 401.769,108.728 389.5,115C 381.693,118.386 373.693,120.553 365.5,121.5C 359.5,121.5 353.5,121.5 347.5,121.5C 319.078,118.913 302.245,103.579 297,75.5C 295.628,60.971 296.628,46.6377 300,32.5C 303.626,21.4106 310.459,12.9106 320.5,7C 327.632,3.55996 334.965,1.05996 342.5,-0.5 Z M 348.5,12.5 C 382.019,10.517 399.019,26.3503 399.5,60C 397.168,99.9772 376.502,114.977 337.5,105C 326.847,100.347 319.68,92.5139 316,81.5C 312.175,65.292 312.842,49.292 318,33.5C 324.52,21.1599 334.687,14.1599 348.5,12.5 Z"/>
    </g>
    <g>
        <path style="opacity:0.935" fill="#fefffe"
              d="M 482.5,-0.5 C 492.167,-0.5 501.833,-0.5 511.5,-0.5C 517.776,0.66005 524.11,2.16005 530.5,4C 531.802,8.78169 531.802,13.615 530.5,18.5C 509.223,10.017 488.223,10.517 467.5,20C 459.608,25.5693 454.441,33.0693 452,42.5C 447.3,61.8294 450.633,79.4961 462,95.5C 472.448,104.331 484.615,108.664 498.5,108.5C 509.736,107.683 520.736,105.683 531.5,102.5C 531.5,107.167 531.5,111.833 531.5,116.5C 523.435,118.445 515.435,120.112 507.5,121.5C 500.833,121.5 494.167,121.5 487.5,121.5C 451.354,116.828 433.354,95.9944 433.5,59C 433.049,24.9601 449.382,5.12677 482.5,-0.5 Z"/>
    </g>
    <g>
        <path style="opacity:0.942" fill="#fefffe"
              d="M 598.5,-0.5 C 607.5,-0.5 616.5,-0.5 625.5,-0.5C 652.276,3.77781 667.443,19.4445 671,46.5C 672.092,59.2795 671.425,71.9462 669,84.5C 665.163,100.335 655.663,111.168 640.5,117C 634.143,119.008 627.81,120.508 621.5,121.5C 615.167,121.5 608.833,121.5 602.5,121.5C 567.511,116.648 550.511,96.3145 551.5,60.5C 550.978,45.2635 554.811,31.2635 563,18.5C 572.581,7.79524 584.414,1.4619 598.5,-0.5 Z M 604.5,12.5 C 615.691,11.4389 626.358,13.2723 636.5,18C 645.157,23.9989 650.657,32.1655 653,42.5C 655.457,56.6674 654.79,70.6674 651,84.5C 643.53,100.755 630.697,108.755 612.5,108.5C 589.124,108.424 574.958,97.0905 570,74.5C 567.018,58.0149 569.352,42.3482 577,27.5C 584.187,18.6602 593.353,13.6602 604.5,12.5 Z"/>
    </g>
    <g>
        <path style="opacity:0.957" fill="#fefffe"
              d="M 695.5,-0.5 C 700.833,-0.5 706.167,-0.5 711.5,-0.5C 735.835,31.3397 760.001,63.3397 784,95.5C 784.5,63.5017 784.667,31.5017 784.5,-0.5C 789.5,-0.5 794.5,-0.5 799.5,-0.5C 799.5,39.8333 799.5,80.1667 799.5,120.5C 794.156,120.666 788.823,120.499 783.5,120C 758.969,88.4361 734.803,56.6027 711,24.5C 710.5,56.4983 710.333,88.4983 710.5,120.5C 705.5,120.5 700.5,120.5 695.5,120.5C 695.5,80.1667 695.5,39.8333 695.5,-0.5 Z"/>
    </g>
    <g>
        <path style="opacity:0.941" fill="#fefffe"
              d="M 817.5,-0.5 C 848.167,-0.5 878.833,-0.5 909.5,-0.5C 909.5,4.16667 909.5,8.83333 909.5,13.5C 896.833,13.5 884.167,13.5 871.5,13.5C 871.5,49.1667 871.5,84.8333 871.5,120.5C 866.167,120.5 860.833,120.5 855.5,120.5C 855.5,84.8333 855.5,49.1667 855.5,13.5C 842.833,13.5 830.167,13.5 817.5,13.5C 817.5,8.83333 817.5,4.16667 817.5,-0.5 Z"/>
    </g>
</svg>
