<svg xmlns="http://www.w3.org/2000/svg" width="8" height="8.002" viewBox="0 0 8 8.002">
  <path id="Контур_8" data-name="Контур 8" d="M2.308,5.718a.25.25,0,0,0,.353,0L5.69,2.666a.25.25,0,1,0-.353-.353L2.308,5.364A.25.25,0,0,0,2.308,5.718Zm1.408-.532a1.044,1.044,0,0,1-.288,1l-1.01.978A1.125,1.125,0,0,1,.825,5.579l.986-1.017a1.1,1.1,0,0,1,1.094-.285l.39-.39a1.619,1.619,0,0,0-1.837.321L.474,5.223a1.625,1.625,0,1,0,2.3,2.3l1.007-.976A1.56,1.56,0,0,0,4.113,4.79ZM7.522.471a1.625,1.625,0,0,0-2.3,0l-1.007.976a1.625,1.625,0,0,0-.311,1.86l.388-.388A1.119,1.119,0,0,1,4.569,1.8L5.578.825A1.125,1.125,0,0,1,7.171,2.413l-1.01,1.01a1.117,1.117,0,0,1-.8.329,1.049,1.049,0,0,1-.217-.007l-.4.4a1.57,1.57,0,0,0,.616.109,1.619,1.619,0,0,0,1.149-.476L7.523,2.769a1.625,1.625,0,0,0,0-2.3Z" transform="translate(0.001 0.005)"/>
</svg>
