<svg xmlns="http://www.w3.org/2000/svg" width="8" height="9.458" viewBox="0 0 8 9.458">
  <path id="Контур_10" data-name="Контур 10" d="M9.579,0H3.687a.58.58,0,0,0-.61.61V1.786H2.755a.29.29,0,0,0,0,.579h.322V3.554H2.783a.289.289,0,0,0,0,.579h.295v1.2h-.3a.29.29,0,0,0,0,.579h.3V7.094h-.3a.29.29,0,0,0,0,.579h.3V8.867a.556.556,0,0,0,.6.591H9.579a.887.887,0,0,0,.887-.887V.888A.887.887,0,0,0,9.579,0ZM3.669,8.866V7.672h.308a.29.29,0,0,0,0-.579H3.669V5.906h.308a.29.29,0,0,0,0-.579H3.669v-1.2h.314a.289.289,0,1,0,0-.579H3.669V2.364h.287a.289.289,0,0,0,0-.579H3.669V.609a.1.1,0,0,1,0-.018H8.4V8.866H3.669Zm6.206-.3a.3.3,0,0,1-.3.3H8.988V.591h.591a.3.3,0,0,1,.3.3Z" transform="translate(-2.466)"/>
</svg>
